# Blender 4.4.1
# www.blender.org
mtllib spiderWeb.mtl
o 立方体.001
v 8.100000 -0.400000 0.200000
v 8.100000 0.400000 0.200000
v -7.900000 -0.400000 0.200000
v -7.900000 0.400000 0.200000
v 8.100000 -0.400000 -0.200000
v 8.100000 0.400000 -0.200000
v -7.900000 -0.400000 -0.200000
v -7.900000 0.400000 -0.200000
v 0.516193 4.308164 0.200000
v 0.242577 5.059917 0.200000
v -3.242577 2.940082 0.200000
v -3.516193 3.691836 0.200000
v 0.516193 4.308164 -0.200000
v 0.242577 5.059917 -0.200000
v -3.242577 2.940082 -0.200000
v -3.516193 3.691836 -0.200000
v -2.789762 3.377229 0.200000
v -3.514808 3.715324 0.200000
v -4.480235 -0.248001 0.200000
v -5.205281 0.090094 0.200000
v -2.789762 3.377229 -0.200000
v -3.514808 3.715324 -0.200000
v -4.480235 -0.248001 -0.200000
v -5.205281 0.090094 -0.200000
v -4.455204 0.351786 0.200000
v -5.206959 0.078170 0.200000
v -3.087124 -3.406983 0.200000
v -3.838878 -3.680600 0.200000
v -4.455204 0.351786 -0.200000
v -5.206959 0.078170 -0.200000
v -3.087124 -3.406983 -0.200000
v -3.838878 -3.680600 -0.200000
v -3.500531 -2.979478 0.200000
v -3.838626 -3.704525 0.200000
v 0.124700 -4.669951 0.200000
v -0.213395 -5.394999 0.200000
v -3.500531 -2.979478 -0.200000
v -3.838626 -3.704525 -0.200000
v 0.124700 -4.669951 -0.200000
v -0.213395 -5.394999 -0.200000
v -0.498961 -4.645381 0.200000
v -0.225344 -5.397135 0.200000
v 3.259809 -3.277300 0.200000
v 3.533426 -4.029055 0.200000
v -0.498961 -4.645381 -0.200000
v -0.225344 -5.397135 -0.200000
v 3.259809 -3.277300 -0.200000
v 3.533426 -4.029055 -0.200000
v 2.797583 -3.697133 0.200000
v 3.522629 -4.035227 0.200000
v 4.488056 -0.071902 0.200000
v 5.213102 -0.409996 0.200000
v 2.797583 -3.697133 -0.200000
v 3.522629 -4.035227 -0.200000
v 4.488056 -0.071902 -0.200000
v 5.213102 -0.409996 -0.200000
v 4.461944 -0.695248 0.200000
v 5.213697 -0.421631 0.200000
v 3.093863 3.063522 0.200000
v 3.845617 3.337138 0.200000
v 4.461944 -0.695248 -0.200000
v 5.213697 -0.421631 -0.200000
v 3.093863 3.063522 -0.200000
v 3.845617 3.337138 -0.200000
v 3.508106 2.618075 0.200000
v 3.846201 3.343121 0.200000
v -0.117125 4.308547 0.200000
v 0.220970 5.033594 0.200000
v 3.508106 2.618075 -0.200000
v 3.846201 3.343121 -0.200000
v -0.117125 4.308547 -0.200000
v 0.220970 5.033594 -0.200000
v -0.300000 -8.000000 0.200000
v 0.500000 -8.000000 0.200000
v -0.299999 8.000000 0.200000
v 0.500000 8.000000 0.200000
v -0.300000 -8.000000 -0.200000
v 0.500000 -8.000000 -0.200000
v -0.299999 8.000000 -0.200000
v 0.500000 8.000000 -0.200000
v 6.039697 5.374011 0.200000
v 5.474011 5.939696 0.200000
v -5.274012 -5.939696 0.200000
v -5.839697 -5.374011 0.200000
v 6.039697 5.374011 -0.200000
v 5.474011 5.939696 -0.200000
v -5.274012 -5.939696 -0.200000
v -5.839697 -5.374011 -0.200000
v 5.474011 -5.939696 0.200000
v 6.039697 -5.374011 0.200000
v -5.839697 5.374011 0.200000
v -5.274012 5.939696 0.200000
v 5.474011 -5.939696 -0.200000
v 6.039697 -5.374011 -0.200000
v -5.839697 5.374011 -0.200000
v -5.274012 5.939696 -0.200000
vn -0.0000 -0.0000 1.0000
vn -1.0000 -0.0000 -0.0000
vn -0.0000 -0.0000 -1.0000
vn 1.0000 -0.0000 -0.0000
vn -0.0000 -1.0000 -0.0000
vn -0.0000 1.0000 -0.0000
vn -0.9397 -0.3420 -0.0000
vn 0.9397 0.3420 -0.0000
vn 0.3420 -0.9397 -0.0000
vn -0.3420 0.9397 -0.0000
vn -0.4226 -0.9063 -0.0000
vn 0.4226 0.9063 -0.0000
vn 0.9063 -0.4226 -0.0000
vn -0.9063 0.4226 -0.0000
vn -0.7071 -0.7071 -0.0000
vn 0.7071 0.7071 -0.0000
vn 0.7071 -0.7071 -0.0000
vn -0.7071 0.7071 -0.0000
vt 0.625000 0.000000
vt 0.375000 0.250000
vt 0.375000 0.000000
vt 0.625000 0.250000
vt 0.375000 0.500000
vt 0.625000 0.500000
vt 0.375000 0.750000
vt 0.625000 0.750000
vt 0.375000 1.000000
vt 0.125000 0.750000
vt 0.125000 0.500000
vt 0.875000 0.500000
vt 0.625000 1.000000
vt 0.875000 0.750000
s 0
f 2/1/1 3/2/1 1/3/1
f 4/4/2 7/5/2 3/2/2
f 8/6/3 5/7/3 7/5/3
f 6/8/4 1/9/4 5/7/4
f 7/5/5 1/10/5 3/11/5
f 4/12/6 6/8/6 8/6/6
f 9/3/1 12/4/1 11/2/1
f 12/4/7 15/5/7 11/2/7
f 16/6/3 13/7/3 15/5/3
f 14/8/8 9/9/8 13/7/8
f 15/5/9 9/10/9 11/11/9
f 12/12/10 14/8/10 16/6/10
f 18/1/1 19/2/1 17/3/1
f 20/4/11 23/5/11 19/2/11
f 23/5/3 22/8/3 21/7/3
f 22/8/12 17/9/12 21/7/12
f 23/5/13 17/10/13 19/11/13
f 20/12/14 22/8/14 24/6/14
f 26/1/1 27/2/1 25/3/1
f 28/4/9 31/5/9 27/2/9
f 31/5/3 30/8/3 29/7/3
f 30/8/10 25/9/10 29/7/10
f 31/5/8 25/10/8 27/11/8
f 28/12/7 30/8/7 32/6/7
f 34/1/1 35/2/1 33/3/1
f 36/4/13 39/5/13 35/2/13
f 39/5/3 38/8/3 37/7/3
f 38/8/14 33/9/14 37/7/14
f 39/5/12 33/10/12 35/11/12
f 36/12/11 38/8/11 40/6/11
f 42/1/1 43/2/1 41/3/1
f 44/4/8 47/5/8 43/2/8
f 47/5/3 46/8/3 45/7/3
f 46/8/7 41/9/7 45/7/7
f 47/5/10 41/10/10 43/11/10
f 44/12/9 46/8/9 48/6/9
f 50/1/1 51/2/1 49/3/1
f 52/4/12 55/5/12 51/2/12
f 55/5/3 54/8/3 53/7/3
f 54/8/11 49/9/11 53/7/11
f 55/5/14 49/10/14 51/11/14
f 52/12/13 54/8/13 56/6/13
f 57/3/1 60/4/1 59/2/1
f 60/4/10 63/5/10 59/2/10
f 64/6/3 61/7/3 63/5/3
f 62/8/9 57/9/9 61/7/9
f 63/5/7 57/10/7 59/11/7
f 60/12/8 62/8/8 64/6/8
f 65/3/1 68/4/1 67/2/1
f 68/4/14 71/5/14 67/2/14
f 72/6/3 69/7/3 71/5/3
f 70/8/13 65/9/13 69/7/13
f 71/5/11 65/10/11 67/11/11
f 68/12/12 70/8/12 72/6/12
f 74/1/1 75/2/1 73/3/1
f 76/4/6 79/5/6 75/2/6
f 79/5/3 78/8/3 77/7/3
f 78/8/5 73/9/5 77/7/5
f 79/5/2 73/10/2 75/11/2
f 76/12/4 78/8/4 80/6/4
f 82/1/1 83/2/1 81/3/1
f 84/4/15 87/5/15 83/2/15
f 87/5/3 86/8/3 85/7/3
f 86/8/16 81/9/16 85/7/16
f 87/5/17 81/10/17 83/11/17
f 84/12/18 86/8/18 88/6/18
f 89/3/1 92/4/1 91/2/1
f 92/4/18 95/5/18 91/2/18
f 96/6/3 93/7/3 95/5/3
f 94/8/17 89/9/17 93/7/17
f 95/5/15 89/10/15 91/11/15
f 92/12/16 94/8/16 96/6/16
f 2/1/1 4/4/1 3/2/1
f 4/4/2 8/6/2 7/5/2
f 8/6/3 6/8/3 5/7/3
f 6/8/4 2/13/4 1/9/4
f 7/5/5 5/7/5 1/10/5
f 4/12/6 2/14/6 6/8/6
f 9/3/1 10/1/1 12/4/1
f 12/4/7 16/6/7 15/5/7
f 16/6/3 14/8/3 13/7/3
f 14/8/8 10/13/8 9/9/8
f 15/5/9 13/7/9 9/10/9
f 12/12/10 10/14/10 14/8/10
f 18/1/1 20/4/1 19/2/1
f 20/4/11 24/6/11 23/5/11
f 23/5/3 24/6/3 22/8/3
f 22/8/12 18/13/12 17/9/12
f 23/5/13 21/7/13 17/10/13
f 20/12/14 18/14/14 22/8/14
f 26/1/1 28/4/1 27/2/1
f 28/4/9 32/6/9 31/5/9
f 31/5/3 32/6/3 30/8/3
f 30/8/10 26/13/10 25/9/10
f 31/5/8 29/7/8 25/10/8
f 28/12/7 26/14/7 30/8/7
f 34/1/1 36/4/1 35/2/1
f 36/4/13 40/6/13 39/5/13
f 39/5/3 40/6/3 38/8/3
f 38/8/14 34/13/14 33/9/14
f 39/5/12 37/7/12 33/10/12
f 36/12/11 34/14/11 38/8/11
f 42/1/1 44/4/1 43/2/1
f 44/4/8 48/6/8 47/5/8
f 47/5/3 48/6/3 46/8/3
f 46/8/7 42/13/7 41/9/7
f 47/5/10 45/7/10 41/10/10
f 44/12/9 42/14/9 46/8/9
f 50/1/1 52/4/1 51/2/1
f 52/4/12 56/6/12 55/5/12
f 55/5/3 56/6/3 54/8/3
f 54/8/11 50/13/11 49/9/11
f 55/5/14 53/7/14 49/10/14
f 52/12/13 50/14/13 54/8/13
f 57/3/1 58/1/1 60/4/1
f 60/4/10 64/6/10 63/5/10
f 64/6/3 62/8/3 61/7/3
f 62/8/9 58/13/9 57/9/9
f 63/5/7 61/7/7 57/10/7
f 60/12/8 58/14/8 62/8/8
f 65/3/1 66/1/1 68/4/1
f 68/4/14 72/6/14 71/5/14
f 72/6/3 70/8/3 69/7/3
f 70/8/13 66/13/13 65/9/13
f 71/5/11 69/7/11 65/10/11
f 68/12/12 66/14/12 70/8/12
f 74/1/1 76/4/1 75/2/1
f 76/4/6 80/6/6 79/5/6
f 79/5/3 80/6/3 78/8/3
f 78/8/5 74/13/5 73/9/5
f 79/5/2 77/7/2 73/10/2
f 76/12/4 74/14/4 78/8/4
f 82/1/1 84/4/1 83/2/1
f 84/4/15 88/6/15 87/5/15
f 87/5/3 88/6/3 86/8/3
f 86/8/16 82/13/16 81/9/16
f 87/5/17 85/7/17 81/10/17
f 84/12/18 82/14/18 86/8/18
f 89/3/1 90/1/1 92/4/1
f 92/4/18 96/6/18 95/5/18
f 96/6/3 94/8/3 93/7/3
f 94/8/17 90/13/17 89/9/17
f 95/5/15 93/7/15 89/10/15
f 92/12/16 90/14/16 94/8/16
